# This file uses centimeters as units for non-parametric coordinates.

mtllib armchair_covered.mtl
g default
v -38.510275 -0.851099 69.255829
v -27.271485 -0.851099 69.255829
v -43.306422 49.996944 64.459991
v -22.475338 49.996944 64.459991
v -43.306422 49.996944 85.290909
v -22.475338 49.996944 85.290909
v -38.510275 -0.851099 80.494690
v -27.271485 -0.851099 80.494690
v 103.331256 -0.851099 90.378571
v 114.570045 -0.851099 90.378571
v 98.535109 49.996944 85.582352
v 119.366193 49.996944 85.582352
v 98.535109 49.996944 106.413651
v 119.366193 49.996944 106.413651
v 103.331256 -0.851099 101.617432
v 114.570045 -0.851099 101.617432
v -38.510275 -0.851099 -71.924210
v -27.271485 -0.851099 -71.924210
v -43.306422 49.996944 -67.127991
v -22.475338 49.996944 -67.127991
v -43.306422 49.996944 -87.958908
v -22.475338 49.996944 -87.958908
v -38.510275 -0.851099 -83.162689
v -27.271485 -0.851099 -83.162689
v 103.331256 -0.851099 -93.046951
v 114.570045 -0.851099 -93.046951
v 98.535109 49.996944 -88.250732
v 119.366193 49.996944 -88.250732
v 98.535109 49.996944 -109.081650
v 119.366193 49.996944 -109.081650
v 103.331256 -0.851099 -104.285431
v 114.570045 -0.851099 -104.285431
v 132.204199 10.127504 115.785217
v -102.833509 290.194346 129.339600
v 132.204199 10.127504 -115.784836
v -102.833462 290.194346 -129.339600
v 96.550751 167.969157 200.016022
v 138.258314 179.855897 148.078537
v 96.550751 167.969157 -200.016022
v 138.258314 179.855897 -148.078156
v -70.901394 23.583372 150.342178
v -70.901394 23.583372 -150.342178
v -107.111406 202.131702 173.307419
v -107.111454 202.131678 -173.307800
v 101.124573 15.050765 174.995804
v 101.124573 15.050765 -174.996185
v -9.878182 217.734839 136.786652
v -9.878182 217.734863 -136.786270
v -105.966091 24.949844 45.065308
v -145.237923 200.820877 -52.557755
v -105.966091 24.949844 -45.065689
v -44.877195 217.688157 -160.893631
v 68.884873 205.162122 -144.152069
v 142.606878 186.356928 -183.534241
v 138.518763 172.866608 115.800858
v 136.981893 100.962116 121.408081
v 132.719135 11.285122 91.608810
v 133.636189 157.465173 42.556381
v 132.914591 15.543528 36.224365
v 133.636165 157.465173 -42.556000
v 132.914591 15.543528 -36.224365
v 142.606878 186.356928 183.534241
v 103.934336 104.171349 175.948715
v 130.872917 11.597224 149.992752
v 130.872917 11.597224 -149.992752
v 15.354705 19.484492 171.557236
v 17.162490 182.152082 197.152710
v 68.884873 205.162122 144.151688
v -112.287712 317.827298 45.065308
v -4.168630 208.447744 43.138885
v -112.698936 312.598826 111.654663
v -68.382359 269.296338 129.633331
v 0.321269 215.342094 111.761856
v -44.877219 217.688157 160.894012
v -123.082352 271.511389 145.479584
v 132.719135 11.285122 -91.608810
v 136.981893 100.962116 -121.408081
v 138.518763 172.866608 -115.800858
v 0.321269 215.342094 -111.761856
v -68.382359 269.296338 -129.632950
v -112.698936 312.598826 -111.653900
v -123.082352 271.511389 -145.479584
v -143.693590 199.872877 -140.678024
v -112.287712 317.827489 -45.064926
v -4.168630 208.447744 -43.138504
v -143.693590 199.872877 140.678406
v -102.119970 24.949713 122.014618
v -69.767094 100.362875 150.342178
v 15.354705 19.484492 -171.557999
v -69.767094 100.362875 -150.342178
v 17.162466 182.152082 -197.152328
v 103.934336 104.171349 -175.948715
v -102.119970 24.949713 -122.014618
v -145.237923 200.820877 52.558136
v -63.815594 275.303818 43.535614
v -62.836647 273.764922 108.867264
v -86.328650 255.758549 148.339844
v 137.678528 99.405100 -95.046234
v -62.836647 273.764922 -108.866882
v -136.645222 277.113511 -125.804138
v -63.815594 275.303818 -43.535233
v -101.191282 101.971866 122.014618
v 17.143869 99.220516 -171.557999
v -101.191282 101.971866 -122.014618
v -104.855537 102.059199 45.065308
v -104.855537 102.059199 -45.065689
v -136.645222 277.113511 125.804901
v -136.997604 280.040671 48.861313
v -136.997604 280.040671 -48.861313
v 44.906259 209.778978 -174.298859
v 137.678528 99.405100 95.046616
v 136.767983 93.179037 35.851288
v 136.767983 93.179037 -35.850525
v 145.237923 101.126315 153.803635
v 145.237923 101.126315 -153.803635
v 17.143869 99.220492 171.557236
v 74.293089 198.344018 114.656067
v 68.110466 183.262183 42.742538
v 68.110442 183.262183 -42.741776
v 74.293089 198.344018 -114.655304
v 44.906259 209.778978 174.298859
v -86.328650 255.758549 -148.339081
v -75.705814 303.895499 43.343353
v -78.901672 300.393464 111.656189
v -75.705814 303.895499 -43.342972
v -78.901958 300.393559 -111.656189
v 141.504836 167.138578 194.754791
v 141.504788 167.138530 -194.755173
vt 0.110717 0.521462
vt 0.116901 0.587026
vt 0.090041 0.587026
vt 0.096226 0.521462
vt 0.077722 0.521462
vt 0.083906 0.587026
vt 0.057046 0.587026
vt 0.063230 0.521462
vt 0.055995 0.591017
vt 0.062179 0.656582
vt 0.035319 0.656582
vt 0.041503 0.591017
vt 0.089127 0.591017
vt 0.095312 0.656582
vt 0.068451 0.656582
vt 0.074636 0.591017
vt 0.174032 0.626292
vt 0.188524 0.626292
vt 0.194708 0.691856
vt 0.167848 0.691856
vt 0.207164 0.626292
vt 0.221655 0.626292
vt 0.227840 0.691856
vt 0.200980 0.691856
vt 0.306561 0.626292
vt 0.321052 0.626292
vt 0.327236 0.691856
vt 0.300376 0.691856
vt 0.339693 0.626292
vt 0.354184 0.626292
vt 0.360368 0.691856
vt 0.333509 0.691856
vt 0.370083 0.134662
vt 0.368590 0.103489
vt 0.485714 0.096238
vt 0.483706 0.130229
vt 0.485925 0.054467
vt 0.370485 0.059380
vt 0.587440 0.061849
vt 0.578428 0.103468
vt 0.475678 0.206557
vt 0.375574 0.206075
vt 0.595823 0.016131
vt 0.489852 0.025913
vt 0.374938 0.027141
vt 0.558569 0.197911
vt 0.475678 0.299010
vt 0.375574 0.299491
vt 0.571042 0.001663
vt 0.558569 0.307656
vt 0.483706 0.375338
vt 0.370083 0.370905
vt 0.578428 0.402099
vt 0.485714 0.409328
vt 0.368590 0.402079
vt 0.587440 0.443718
vt 0.485925 0.451100
vt 0.370485 0.446186
vt 0.595823 0.489435
vt 0.489852 0.479654
vt 0.374938 0.478425
vt 0.571043 0.503903
vt 0.703540 0.067801
vt 0.829774 0.043736
vt 0.830997 0.157359
vt 0.703652 0.167021
vt 0.832687 0.001663
vt 0.701465 0.031275
vt 0.929370 0.062914
vt 0.933144 0.162126
vt 0.830997 0.292897
vt 0.703652 0.283237
vt 0.604226 0.167021
vt 0.604226 0.067801
vt 0.922146 0.037545
vt 0.602464 0.031275
vt 0.975125 0.081160
vt 0.981866 0.167021
vt 0.933144 0.288131
vt 0.703540 0.382456
vt 0.829774 0.406521
vt 0.604226 0.283237
vt 0.981867 0.283236
vt 0.929370 0.387342
vt 0.604226 0.382456
vt 0.832687 0.448594
vt 0.701465 0.418982
vt 0.975125 0.369097
vt 0.922146 0.412712
vt 0.602464 0.418982
vt 0.959157 0.769335
vt 0.961142 0.685095
vt 0.998008 0.684847
vt 0.993492 0.772931
vt 0.883826 0.773067
vt 0.874936 0.684584
vt 0.961142 0.572825
vt 0.998008 0.573073
vt 0.953395 0.796111
vt 0.874936 0.573336
vt 0.886911 0.805334
vt 0.959157 0.488585
vt 0.993492 0.484989
vt 0.883826 0.484852
vt 0.953395 0.461809
vt 0.886911 0.452586
vt 0.236087 0.484310
vt 0.120319 0.467025
vt 0.165447 0.435941
vt 0.267006 0.445439
vt 0.200314 0.513778
vt 0.040073 0.483033
vt 0.066871 0.450837
vt 0.090011 0.426717
vt 0.178599 0.403674
vt 0.273979 0.407405
vt 0.362064 0.496219
vt 0.356457 0.450501
vt 0.302678 0.517470
vt 0.045589 0.426339
vt 0.019480 0.447150
vt 0.266007 0.314679
vt 0.172809 0.315190
vt 0.356792 0.408882
vt 0.076447 0.403538
vt 0.032869 0.403535
vt 0.001992 0.421781
vt 0.350497 0.314439
vt 0.266007 0.204454
vt 0.172809 0.203943
vt 0.350497 0.204694
vt 0.273979 0.111728
vt 0.178599 0.115460
vt 0.033399 0.317674
vt 0.080568 0.315454
vt 0.356792 0.110251
vt 0.165447 0.083192
vt 0.267006 0.073695
vt 0.033399 0.201459
vt 0.080568 0.203679
vt 0.356457 0.068632
vt 0.236087 0.034824
vt 0.120319 0.052108
vt 0.032869 0.115598
vt 0.076447 0.115596
vt 0.362064 0.022915
vt 0.090011 0.092416
vt 0.066871 0.068295
vt 0.200314 0.005355
vt 0.040073 0.036101
vt 0.045589 0.092794
vt 0.302678 0.001663
vt 0.019480 0.071984
vt 0.001992 0.097352
vt 0.162216 0.587026
vt 0.156031 0.521462
vt 0.182891 0.521462
vt 0.176707 0.587026
vt 0.123036 0.587026
vt 0.129221 0.521462
vt 0.143712 0.521462
vt 0.149896 0.587026
vt 0.030235 0.587026
vt 0.024051 0.521462
vt 0.050911 0.521462
vt 0.044727 0.587026
vt 0.001992 0.656582
vt 0.008176 0.591017
vt 0.022668 0.591017
vt 0.028852 0.656582
vt 0.107768 0.591017
vt 0.122259 0.591017
vt 0.128443 0.656582
vt 0.101583 0.656582
vt 0.134716 0.591017
vt 0.161576 0.591017
vt 0.155391 0.656582
vt 0.140900 0.656582
vt 0.240296 0.626292
vt 0.254788 0.626292
vt 0.260972 0.691856
vt 0.234112 0.691856
vt 0.267244 0.626292
vt 0.294104 0.626292
vt 0.287920 0.691856
vt 0.273429 0.691856
vt 0.284621 0.601707
vt 0.304680 0.521462
vt 0.353768 0.574910
vt 0.374080 0.622301
vt 0.868801 0.509466
vt 0.863084 0.620059
vt 0.760271 0.617752
vt 0.753887 0.505843
vt 0.857798 0.731279
vt 0.758798 0.729816
vt 0.653338 0.617728
vt 0.671625 0.515364
vt 0.627576 0.777969
vt 0.672696 0.457399
vt 0.757814 0.452586
vt 0.647916 0.455978
vt 0.495129 0.561152
vt 0.576320 0.512708
vt 0.577391 0.570672
vt 0.491203 0.507894
vt 0.601100 0.511287
vt 0.488745 0.673061
vt 0.595678 0.673037
vt 0.385932 0.675368
vt 0.380216 0.564775
vt 0.490218 0.785125
vt 0.621440 0.833277
vt 0.391218 0.786588
vt 0.278486 0.601707
vt 0.189027 0.622301
vt 0.209339 0.574910
vt 0.258427 0.521462
vn -0.700893 -0.132218 -0.700905
vn -0.700896 -0.132218 -0.700902
vn 0.700896 -0.132218 -0.700902
vn 0.700893 -0.132218 -0.700905
vn -0.700893 -0.132223 0.700903
vn -0.700894 -0.132223 0.700903
vn 0.700894 -0.132223 0.700903
vn 0.700893 -0.132223 0.700903
vn -0.700894 -0.132224 -0.700903
vn -0.700893 -0.132224 -0.700903
vn 0.700893 -0.132224 -0.700903
vn 0.700894 -0.132224 -0.700903
vn -0.700893 -0.132224 0.700903
vn -0.700894 -0.132224 0.700903
vn 0.700894 -0.132224 0.700903
vn 0.700893 -0.132224 0.700903
vn -0.700894 -0.132223 0.700903
vn 0.700894 -0.132222 0.700903
vn 0.700893 -0.132222 0.700903
vn -0.700893 -0.132223 0.700903
vn -0.700893 -0.132223 -0.700903
vn 0.700893 -0.132222 -0.700903
vn 0.700894 -0.132222 -0.700903
vn -0.700894 -0.132223 -0.700903
vn -0.700894 -0.132222 0.700903
vn 0.700894 -0.132223 0.700903
vn 0.700893 -0.132223 0.700903
vn -0.700893 -0.132222 0.700903
vn -0.700893 -0.132222 -0.700903
vn 0.700893 -0.132223 -0.700903
vn 0.700894 -0.132223 -0.700903
vn -0.700894 -0.132222 -0.700903
vn 0.480130 0.873683 -0.078439
vn 0.551619 0.832589 -0.050116
vn 0.787104 0.616649 -0.014527
vn 0.752535 0.657799 0.031510
vn 0.048063 0.629922 0.775170
vn 0.610970 0.774155 0.165528
vn -0.425802 0.891933 0.152148
vn 0.491867 0.658315 0.569814
vn 0.320273 0.931889 0.170318
vn -0.367261 -0.108021 0.923824
vn 0.099915 0.684883 0.721771
vn 0.198692 0.480561 0.854156
vn -0.391012 0.357900 0.847949
vn 0.998540 -0.053839 -0.004459
vn 0.995767 -0.080227 0.044855
vn 0.997504 -0.032546 0.062654
vn 0.999736 -0.018162 0.014081
vn 0.771830 0.617856 0.150109
vn 0.776164 0.613420 0.145892
vn 0.551618 0.832590 0.050117
vn 0.480129 0.873684 0.078439
vn 0.752534 0.657799 -0.031510
vn 0.787104 0.616649 0.014527
vn 0.320275 0.931888 -0.170318
vn 0.491870 0.658311 -0.569816
vn -0.425798 0.891935 -0.152149
vn 0.048050 0.629923 -0.775170
vn -0.391019 0.357903 -0.847944
vn -0.946030 0.258961 -0.194849
vn -0.367262 -0.108017 -0.923824
vn -0.937615 -0.206957 -0.279368
vn -0.937615 -0.206957 0.279368
vn -0.915686 -0.263008 0.303885
vn -0.361699 -0.201027 0.910364
vn -0.983635 -0.179881 0.010267
vn -0.973056 -0.229992 0.016309
vn -0.999652 0.013858 0.022459
vn -0.947862 0.012587 0.318431
vn -0.382062 0.006012 0.924117
vn 0.174359 -0.030983 -0.984195
vn -0.138505 -0.000152 -0.990362
vn -0.154815 -0.164423 -0.974165
vn 0.109635 -0.178321 -0.977845
vn -0.382067 0.006012 -0.924115
vn -0.361703 -0.201025 -0.910363
vn -0.133801 -0.011220 -0.990945
vn 0.006102 0.023023 -0.999716
vn -0.915685 -0.263008 -0.303886
vn -0.947862 0.012588 -0.318433
vn -0.983635 -0.179881 -0.010267
vn -0.973056 -0.229992 -0.016309
vn -0.999652 0.013858 -0.022459
vn -0.946030 0.258961 0.194849
vn -0.384267 0.922860 0.025867
vn -0.965417 0.260559 0.008920
vn -0.384266 0.922860 -0.025867
vn -0.965417 0.260559 -0.008920
vn 0.100246 0.863767 -0.493819
vn 0.628961 0.748400 -0.210486
vn 0.099921 0.684884 -0.721768
vn 0.251897 0.964080 0.084240
vn 0.999736 -0.018163 -0.014081
vn 0.998540 -0.053839 0.004459
vn 0.998686 -0.051189 -0.002514
vn 0.999901 -0.009285 -0.010610
vn 0.776166 0.613418 -0.145892
vn 0.794975 0.601646 -0.077696
vn 0.771832 0.617854 -0.150109
vn 0.997504 -0.032546 -0.062654
vn 0.995767 -0.080229 -0.044855
vn 0.998686 -0.051189 0.002514
vn 0.999901 -0.009285 0.010610
vn 0.794976 0.601645 0.077696
vn 0.628959 0.748402 0.210486
vn 0.932804 -0.101003 0.345942
vn 0.109628 -0.178325 0.977846
vn 0.556582 -0.164508 0.814343
vn 0.006103 0.023019 0.999716
vn 0.174349 -0.030985 0.984196
vn 0.871474 -0.100442 0.480046
vn 0.932804 -0.101002 -0.345941
vn 0.871475 -0.100440 -0.480045
vn -0.138507 -0.000153 0.990361
vn -0.154817 -0.164426 0.974164
vn -0.133802 -0.011225 0.990945
vn 0.251900 0.964080 -0.084241
vn 0.309809 0.933702 -0.179497
vn 0.334957 0.938043 -0.088769
vn 0.334957 0.938042 0.088769
vn 0.309809 0.933702 0.179497
vn 0.100247 0.863768 0.493818
vn 0.198703 0.480565 -0.854151
vn 0.647650 0.761572 0.023604
vn 0.647650 0.761572 -0.023604
vn 0.610969 0.774155 -0.165530
vn 0.556587 -0.164506 -0.814340
s 1
g armchair1 oriented
usemtl initialShadingGroup
f 1/155/1 3/156/2 4/157/3 2/158/4
f 5/159/5 7/160/6 8/161/7 6/162/8
f 2/1/4 4/2/3 6/3/8 8/4/7
f 7/5/6 5/6/5 3/7/2 1/8/1
s 2
f 9/163/9 11/164/10 12/165/11 10/166/12
f 13/167/13 15/168/14 16/169/15 14/170/16
f 10/9/12 12/10/11 14/11/16 16/12/15
f 15/13/14 13/14/13 11/15/10 9/16/9
s 3
f 17/171/17 18/172/18 20/173/19 19/174/20
f 21/175/21 22/176/22 24/177/23 23/178/24
f 18/17/18 24/18/23 22/19/22 20/20/19
f 23/21/24 17/22/17 19/23/20 21/24/21
s 4
f 25/179/25 26/180/26 28/181/27 27/182/28
f 29/183/29 30/184/30 32/185/31 31/186/32
f 26/25/26 32/26/31 30/27/30 28/28/27
f 31/29/32 25/30/25 27/31/28 29/32/29
s 5
f 73/95/33 70/96/34 95/92/35 96/91/36
f 34/151/37 124/145/38 71/144/39
f 96/91/36 72/99/40 47/101/41 73/95/33
f 43/187/42 74/188/43 97/189/44 75/190/45
f 47/137/41 72/147/40 97/148/44 74/143/43
f 34/151/37 75/153/45 97/148/44 72/147/40
f 76/33/46 35/34/47 77/35/48 98/36/49
f 98/36/49 77/35/48 40/39/50 78/40/51
f 85/100/52 79/104/53 99/102/54 101/97/55
f 99/102/54 79/104/53 48/106/56 80/105/57
f 81/126/58 36/120/59 82/121/60 100/127/61
f 100/84/61 82/89/60 44/86/62 83/81/63
f 70/96/34 85/100/52 101/97/55 95/92/35
f 43/67/42 86/64/64 102/63/65 88/68/66
f 102/63/65 86/64/64 94/65/67 105/66/68
f 49/73/69 87/74/70 102/63/65 105/66/68
f 88/68/66 102/63/65 87/74/70 41/76/71
f 46/191/72 89/192/73 103/193/74 92/194/75
f 89/192/73 42/195/76 90/196/77 103/193/74
f 103/193/74 90/196/77 44/199/62 91/197/78
f 92/194/75 103/193/74 91/197/78 39/198/79
f 83/81/63 44/86/62 90/87/77 104/80/80
f 104/80/80 90/87/77 42/90/76 93/85/81
f 105/66/68 94/65/67 50/71/82 106/72/83
f 51/82/84 49/73/69 105/66/68 106/72/83
f 104/80/80 106/72/83 50/71/82 83/81/63
f 93/85/81 51/82/84 106/72/83 104/80/80
f 107/69/85 71/77/39 69/78/86 108/70/87
f 86/64/64 107/69/85 108/70/87 94/65/67
f 107/69/85 86/64/64 43/67/42 75/75/45
f 71/144/39 107/154/85 75/153/45 34/151/37
f 108/70/87 69/78/86 84/83/88 109/79/89
f 94/65/67 108/70/87 109/79/89 50/71/82
f 100/84/61 109/79/89 84/83/88 81/88/58
f 50/71/82 109/79/89 100/84/61 83/81/63
f 39/119/79 91/111/78 110/107/90 54/117/91
f 91/111/78 44/112/62 52/108/92 110/107/90
f 110/107/90 52/108/92 48/109/56 53/110/93
f 54/117/91 110/107/90 53/110/93 40/118/50
f 111/51/94 57/52/95 59/48/96 112/47/97
f 55/53/98 111/51/94 112/47/97 58/50/99
f 111/51/94 55/53/98 38/56/100 56/54/101
f 57/52/95 111/51/94 56/54/101 33/55/102
f 112/47/97 59/48/96 61/42/103 113/41/104
f 58/50/99 112/47/97 113/41/104 60/46/105
f 98/36/49 113/41/104 61/42/103 76/33/46
f 60/46/105 113/41/104 98/36/49 78/40/51
f 38/56/100 62/59/106 114/57/107 56/54/101
f 63/203/108 127/204/109 37/205/110
f 114/57/107 63/60/108 45/61/111 64/58/112
f 56/54/101 114/57/107 64/58/112 33/55/102
f 54/43/91 40/39/50 77/35/48 115/37/113
f 115/37/113 77/35/48 35/34/47 65/38/114
f 92/44/75 115/37/113 65/38/114 46/45/72
f 41/214/71 66/210/115 116/208/116 88/212/66
f 66/210/115 45/211/111 63/203/108 116/208/116
f 116/208/116 63/203/108 37/205/110 67/209/117
f 88/212/66 116/208/116 67/209/117 43/213/42
f 73/133/33 47/137/41 68/138/118 117/132/119
f 117/132/119 68/138/118 38/141/100 55/136/98
f 117/132/119 118/129/120 70/130/34 73/133/33
f 55/136/98 58/131/99 118/129/120 117/132/119
f 118/129/120 119/122/121 85/123/52 70/130/34
f 58/131/99 60/128/105 119/122/121 118/129/120
f 48/109/56 79/115/53 120/116/122 53/110/93
f 119/122/121 120/116/122 79/115/53 85/123/52
f 60/128/105 78/124/51 120/116/122 119/122/121
f 53/110/93 120/116/122 78/124/51 40/118/50
f 37/152/110 62/146/106 121/142/123 67/149/117
f 62/146/106 38/141/100 68/138/118 121/142/123
f 121/142/123 68/138/118 47/137/41 74/143/43
f 67/149/117 121/142/123 74/143/43 43/150/42
f 48/109/56 52/108/92 122/113/124 80/114/57
f 44/215/62 82/216/60 122/217/124 52/218/92
f 36/120/59 80/114/57 122/113/124 82/121/60
f 69/139/86 71/144/39 124/145/38 123/140/125
f 96/91/36 95/92/35 123/93/125 124/94/38
f 34/151/37 72/147/40 124/145/38
f 72/99/40 96/91/36 124/94/38
f 81/126/58 84/134/88 125/135/126 126/125/127
f 101/97/55 99/102/54 126/103/127 125/98/126
f 99/102/54 80/105/57 126/103/127
f 80/114/57 36/120/59 126/125/127
f 126/125/127 36/120/59 81/126/58
f 95/92/35 101/97/55 125/98/126 123/93/125
f 125/135/126 84/134/88 69/139/86 123/140/125
f 62/207/106 37/205/110 127/204/109
f 63/203/108 114/206/107 127/204/109
f 39/198/79 54/202/91 128/200/128
f 128/49/128 54/43/91 115/37/113
f 128/200/128 92/194/75 39/198/79
f 127/62/109 114/57/107 62/59/106
f 128/200/128 115/201/113 92/194/75
