# This file uses centimeters as units for non-parametric coordinates.

mtllib photo_frame_d.mtl
g default
v -2.487274 3.439739 -7.602314
v -2.487274 18.636618 -19.249743
v -2.487274 29.916156 -21.890002
v -2.487274 41.919593 -21.890002
v -2.487274 53.199135 -19.249749
v -2.487274 62.394303 -14.287695
v -2.487274 68.396023 -7.602320
v -2.487274 70.480400 -0.000006
v -2.487274 68.396029 7.602315
v -2.487274 62.394313 14.287687
v -2.487274 53.199148 19.249747
v -2.487287 41.919607 21.890000
v -2.487287 29.916170 21.889998
v -2.487287 18.636629 19.249749
v -2.487287 3.439743 7.602318
v -2.487287 1.355368 0.000000
v 2.487274 3.439739 -7.602314
v 2.487274 9.441455 -14.287681
v 2.487274 18.636618 -19.249745
v 2.487274 29.916156 -21.889993
v 2.487274 41.919593 -21.890002
v 2.487274 53.199135 -19.249749
v 2.487287 62.394303 -14.287695
v 2.487274 68.396023 -7.602322
v 2.487278 70.480400 -0.000005
v 2.487278 68.396029 7.602314
v 2.487278 62.394313 14.287687
v 2.487278 53.199148 19.249747
v 2.487278 41.919607 21.890000
v 2.487278 29.916170 21.890002
v 2.487278 18.636629 19.249749
v 2.487278 9.441463 14.287693
v 2.487278 3.439743 7.602317
v 2.487278 1.355368 0.000000
v -2.487278 35.917885 0.000000
v -5.155784 -0.000004 -10.690303
v 5.319052 -0.000004 -10.690303
v -14.096489 -0.000008 -26.015922
v 15.701120 -0.000008 -26.015925
v -14.096506 0.000000 26.015929
v 15.701120 -0.000000 26.015929
v -5.155799 -0.000000 10.690307
v 5.319054 -0.000000 10.690306
v 2.487274 6.006899 -7.001406
v 2.487274 11.534223 -13.158344
v 2.487274 20.002576 -17.728194
v 2.487274 30.390549 -20.159749
v 2.487274 41.445202 -20.159758
v 2.487274 51.833178 -17.728198
v 2.487287 60.301535 -13.158358
v 2.487274 65.828863 -7.001414
v 2.487278 67.748486 -0.000005
v 2.487278 65.828869 7.001406
v 2.487278 60.301545 13.158350
v 2.487278 51.833191 17.728196
v 2.487278 41.445215 20.159756
v 2.487278 30.390562 20.159758
v 2.487278 20.002585 17.728198
v 2.487278 11.534231 13.158356
v 2.487278 6.006903 7.001409
v 2.487278 4.087282 0.000000
v -0.064978 8.468999 -6.425091
v -0.064978 13.541346 -12.075225
v -0.064974 35.917885 0.000000
v -0.064978 21.312634 -16.268911
v -0.064978 30.845527 -18.500315
v -0.064978 40.990224 -18.500323
v -0.064978 50.523123 -16.268914
v -0.064965 58.294413 -12.075237
v -0.064978 63.366762 -6.425098
v -0.064974 65.128373 -0.000004
v -0.064974 63.366769 6.425091
v -0.064974 58.294421 12.075230
v -0.064974 50.523134 16.268912
v -0.064974 40.990237 18.500321
v -0.064974 30.845539 18.500323
v -0.064974 21.312642 16.268914
v -0.064974 13.541353 12.075235
v -0.064974 8.469003 6.425093
v -0.064974 6.707395 0.000000
vt 0.384043 0.646486
vt 0.305814 0.646486
vt 0.239043 0.532030
vt 0.461579 0.532030
vt 0.362895 0.669548
vt 0.325743 0.669548
vt 0.325743 0.726324
vt 0.362895 0.726324
vt 0.325743 0.783100
vt 0.362895 0.783100
vt 0.384043 0.806162
vt 0.305814 0.806162
vt 0.461579 0.920618
vt 0.239043 0.920618
vt 0.196248 0.695511
vt 0.196248 0.638735
vt 0.233399 0.638735
vt 0.233399 0.695511
vt 0.196248 0.581958
vt 0.233399 0.581958
vt 0.196248 0.745439
vt 0.233399 0.745439
vt 0.196248 0.532030
vt 0.233399 0.532030
vt 0.032646 0.225414
vt 0.052364 0.141175
vt 0.196126 0.270237
vt 0.139350 0.027681
vt 0.032646 0.315059
vt 0.001832 0.001992
vt 0.116288 0.001992
vt 0.196126 0.012114
vt 0.052364 0.399298
vt 0.252902 0.027681
vt 0.089422 0.467970
vt 0.339889 0.141176
vt 0.139350 0.512792
vt 0.275964 0.001992
vt 0.390420 0.001992
vt 0.359607 0.225414
vt 0.196126 0.528359
vt 0.359607 0.315059
vt 0.252902 0.512792
vt 0.339889 0.399298
vt 0.302831 0.467970
vt 0.638660 0.065241
vt 0.680857 0.103123
vt 0.590675 0.270237
vt 0.642964 0.046853
vt 0.688946 0.088133
vt 0.712176 0.161161
vt 0.590675 0.052085
vt 0.647452 0.027681
vt 0.697380 0.072503
vt 0.723074 0.151377
vt 0.590675 0.032517
vt 0.728841 0.232355
vt 0.542691 0.065241
vt 0.670514 0.001992
vt 0.734438 0.141175
vt 0.590675 0.012114
vt 0.741234 0.228957
vt 0.538387 0.046853
vt 0.728841 0.308118
vt 0.500494 0.103123
vt 0.784969 0.001992
vt 0.754156 0.225414
vt 0.533899 0.027681
vt 0.741234 0.311516
vt 0.492405 0.088133
vt 0.712176 0.379313
vt 0.469175 0.161161
vt 0.754156 0.315059
vt 0.483971 0.072504
vt 0.723074 0.389096
vt 0.458276 0.151377
vt 0.680857 0.437351
vt 0.452510 0.232355
vt 0.734438 0.399298
vt 0.510837 0.001992
vt 0.446913 0.141176
vt 0.688946 0.452340
vt 0.440117 0.228957
vt 0.638660 0.475232
vt 0.452510 0.308118
vt 0.697380 0.467970
vt 0.396381 0.001992
vt 0.427195 0.225414
vt 0.642964 0.493620
vt 0.440117 0.311516
vt 0.590675 0.488389
vt 0.469175 0.379313
vt 0.647452 0.512792
vt 0.427195 0.315059
vt 0.590675 0.507956
vt 0.458276 0.389096
vt 0.542691 0.475232
vt 0.500494 0.437351
vt 0.590675 0.528359
vt 0.446913 0.399298
vt 0.538387 0.493620
vt 0.492405 0.452340
vt 0.533899 0.512792
vt 0.483971 0.467970
vt 0.831238 0.671214
vt 0.831238 0.755452
vt 0.794087 0.755452
vt 0.794087 0.671214
vt 0.831238 0.845097
vt 0.794087 0.845097
vt 0.695402 0.532030
vt 0.917939 0.532030
vt 0.831238 0.929336
vt 0.794087 0.929336
vt 0.831238 0.998008
vt 0.794087 0.998008
vt 0.553923 0.998008
vt 0.553923 0.929336
vt 0.591075 0.929336
vt 0.591075 0.998008
vt 0.553923 0.845097
vt 0.591075 0.845097
vt 0.553923 0.755452
vt 0.591075 0.755452
vt 0.553923 0.671214
vt 0.591075 0.671214
vt 0.467222 0.532030
vt 0.689759 0.532030
vn -0.000000 -1.000000 0.000000
vn -0.000000 -1.000000 0.000000
vn -0.000000 -1.000000 0.000000
vn -0.000000 -1.000000 0.000000
vn 0.000001 -0.227914 -0.973681
vn 0.000001 -0.112676 -0.993632
vn 0.000001 -0.112676 -0.993632
vn 0.000001 -0.227914 -0.973681
vn 0.000000 0.112676 -0.993632
vn 0.000000 0.112676 -0.993632
vn 0.000000 0.348083 -0.937464
vn 0.000000 0.348083 -0.937464
vn 0.000000 0.608316 -0.793695
vn 0.000000 0.608316 -0.793695
vn -0.000000 0.870290 -0.492539
vn -0.000000 0.870290 -0.492540
vn -0.000000 1.000000 -0.000000
vn -0.000000 1.000000 -0.000000
vn 0.000000 0.870290 0.492539
vn 0.000000 0.870290 0.492539
vn -0.000000 0.608316 0.793695
vn -0.000000 0.608316 0.793695
vn 0.000000 0.348083 0.937464
vn 0.000000 0.348083 0.937464
vn -0.000000 0.112676 0.993632
vn -0.000000 0.112676 0.993632
vn -0.000000 -0.112676 0.993632
vn -0.000000 -0.112676 0.993632
vn -0.000000 -0.227914 0.973681
vn -0.000000 -0.227914 0.973681
vn -0.000000 -1.000000 0.000000
vn -0.000000 -1.000000 0.000000
vn -0.000000 -1.000000 0.000000
vn -0.000000 -1.000000 0.000000
vn -0.000000 -0.964408 0.264418
vn -0.000000 -1.000000 0.000001
vn -0.000000 -1.000000 0.000001
vn -0.000000 -0.964408 0.264418
vn -0.000000 -0.964408 -0.264417
vn -0.000000 -0.964408 -0.264417
vn -1.000000 -0.000000 -0.000000
vn -1.000000 -0.000000 -0.000000
vn -1.000000 0.000000 -0.000000
vn -1.000000 0.000000 -0.000000
vn -1.000000 0.000000 -0.000000
vn -1.000000 0.000000 -0.000000
vn -1.000000 0.000000 -0.000000
vn -1.000000 0.000000 0.000000
vn -1.000000 0.000000 0.000000
vn -1.000000 0.000000 0.000000
vn -1.000000 0.000000 -0.000000
vn -1.000000 0.000001 -0.000001
vn -1.000000 0.000000 -0.000000
vn -1.000000 0.000000 -0.000000
vn -1.000000 0.000000 -0.000001
vn -1.000000 0.000000 -0.000000
vn -1.000000 0.000000 -0.000001
vn 1.000000 -0.000000 -0.000000
vn 1.000000 -0.000000 -0.000000
vn 1.000000 -0.000000 -0.000000
vn 1.000000 -0.000000 -0.000000
vn 1.000000 -0.000000 -0.000000
vn 1.000000 0.000000 -0.000000
vn 1.000000 -0.000001 -0.000001
vn 1.000000 0.000000 0.000001
vn 1.000000 0.000000 0.000000
vn 1.000000 -0.000000 -0.000000
vn 1.000000 -0.000000 0.000000
vn 1.000000 -0.000000 0.000000
vn 1.000000 -0.000000 0.000000
vn 1.000000 -0.000000 0.000000
vn 1.000000 -0.000000 -0.000000
vn 1.000000 -0.000000 -0.000000
vn 1.000000 -0.000000 0.000000
vn 1.000000 -0.000000 -0.000000
vn 1.000000 -0.000000 -0.000000
vn -0.825347 0.328946 0.458908
vn -0.825347 0.328946 0.458908
vn -0.825347 0.328946 0.458908
vn -0.825347 0.328946 0.458908
vn -0.000000 -0.668034 0.744130
vn -0.000000 -0.668034 0.744130
vn -0.000000 -0.668034 0.744130
vn -0.000000 -0.668034 0.744130
vn -0.000000 0.341263 -0.939968
vn -0.000000 0.341263 -0.939968
vn -0.000000 0.341263 -0.939968
vn -0.000000 0.341263 -0.939968
vn 0.768903 0.415707 0.485774
vn 0.750537 0.371690 0.546389
vn 0.755064 0.358604 0.548891
vn 0.000000 0.341263 0.939968
vn 0.000000 0.341263 0.939968
vn 0.000000 0.341263 0.939968
vn 0.000000 0.341263 0.939968
vn -0.000000 -0.668034 -0.744131
vn -0.000000 -0.668034 -0.744131
vn -0.000000 -0.668034 -0.744131
vn -0.000000 -0.668034 -0.744131
vn 0.750537 0.371690 -0.546389
vn 0.768903 0.415707 -0.485774
vn 0.755064 0.358604 -0.548891
vn -0.825347 0.328946 -0.458908
vn -0.825347 0.328946 -0.458908
vn -0.825347 0.328946 -0.458908
vn -0.825347 0.328946 -0.458908
vn 0.746062 0.316226 0.585997
vn 0.852714 0.388718 0.348967
vn 0.852714 0.388718 -0.348967
vn 0.746062 0.316226 -0.585997
vn 1.000000 0.000000 -0.000000
vn 1.000000 -0.000000 -0.000000
vn 0.889232 0.289702 0.354033
vn 0.920045 0.346853 0.182236
vn 1.000000 -0.000000 0.000000
vn 0.855376 0.189865 0.481957
vn 1.000000 -0.000000 0.000000
vn 0.834184 0.065697 0.547559
vn 1.000000 -0.000000 0.000000
vn 0.834184 -0.065696 0.547558
vn 1.000000 -0.000001 -0.000001
vn 0.855376 -0.189866 0.481957
vn 1.000000 0.000000 0.000001
vn 0.889232 -0.289702 0.354033
vn 1.000000 0.000000 0.000000
vn 0.920045 -0.346853 0.182237
vn 1.000000 -0.000000 -0.000000
vn 0.932283 -0.361729 -0.000000
vn 1.000000 -0.000000 0.000000
vn 0.920045 -0.346853 -0.182236
vn 1.000000 -0.000000 0.000000
vn 0.889232 -0.289702 -0.354032
vn 1.000000 -0.000000 0.000000
vn 0.855376 -0.189865 -0.481957
vn 1.000000 -0.000000 0.000000
vn 0.834184 -0.065697 -0.547558
vn 1.000000 -0.000000 0.000000
vn 0.834184 0.065697 -0.547558
vn 1.000000 -0.000000 0.000000
vn 0.855376 0.189865 -0.481957
vn 1.000000 -0.000000 0.000000
vn 0.889232 0.289702 -0.354033
vn 1.000000 -0.000000 0.000000
vn 0.920045 0.346853 -0.182237
vn 1.000000 0.000000 -0.000000
vn 0.932283 0.361729 -0.000000
vn 0.627082 0.456980 0.630823
vn 0.686254 0.623835 0.374012
vn 0.578698 0.270343 0.769431
vn 0.554026 0.088857 0.827744
vn 0.554026 -0.088857 0.827744
vn 0.578698 -0.270343 0.769431
vn 0.627082 -0.456980 0.630823
vn 0.686254 -0.623835 0.374013
vn 0.716322 -0.697770 0.000000
vn 0.686254 -0.623835 -0.374012
vn 0.627082 -0.456980 -0.630823
vn 0.578698 -0.270343 -0.769431
vn 0.554026 -0.088857 -0.827744
vn 0.554026 0.088857 -0.827744
vn 0.578698 0.270343 -0.769431
vn 0.627082 0.456980 -0.630823
vn 0.686254 0.623835 -0.374013
vn 0.716322 0.697770 -0.000000
s off
g photo_frame_d oriented
usemtl initialShadingGroup
f 37/1/1 36/2/2 38/3/3 39/4/4
s 1
f 2/105/5 3/106/6 20/107/7 19/108/8
f 3/106/6 4/109/9 21/110/10 20/107/7
f 4/109/9 5/113/11 22/114/12 21/110/10
f 5/113/11 6/115/13 23/116/14 22/114/12
f 6/21/13 7/15/15 24/18/16 23/22/14
f 7/15/15 8/16/17 25/17/18 24/18/16
f 8/16/17 9/19/19 26/20/20 25/17/18
f 9/19/19 10/23/21 27/24/22 26/20/20
f 10/117/21 11/118/23 28/119/24 27/120/22
f 11/118/23 12/121/25 29/122/26 28/119/24
f 12/121/25 13/123/27 30/124/28 29/122/26
f 13/123/27 14/125/29 31/126/30 30/124/28
s off
f 41/13/31 40/14/32 42/12/33 43/11/34
s 2
f 15/9/35 16/7/36 34/8/37 33/10/38
f 16/7/36 1/6/39 17/5/40 34/8/37
s 3
f 3/25/41 2/26/42 35/27/43
f 4/29/44 3/25/41 35/27/43
f 5/33/45 4/29/44 35/27/43
f 6/35/46 5/33/45 35/27/43
f 7/37/47 6/35/46 35/27/43
f 8/41/48 7/37/47 35/27/43
f 9/43/49 8/41/48 35/27/43
f 10/45/50 9/43/49 35/27/43
f 11/44/51 10/45/50 35/27/43
f 12/42/52 11/44/51 35/27/43
f 13/40/53 12/42/52 35/27/43
f 14/36/54 13/40/53 35/27/43
f 16/32/55 15/34/56 35/27/43
f 1/28/57 16/32/55 35/27/43
s 4
f 62/46/58 63/47/59 64/48/60
f 63/47/59 65/51/61 64/48/60
f 65/51/61 66/57/62 64/48/60
f 66/57/62 67/64/63 64/48/60
f 67/64/63 68/71/64 64/48/60
f 68/71/64 69/77/65 64/48/60
f 69/77/65 70/84/66 64/48/60
f 70/84/66 71/91/67 64/48/60
f 71/91/67 72/97/68 64/48/60
f 72/97/68 73/98/69 64/48/60
f 73/98/69 74/92/70 64/48/60
f 74/92/70 75/85/71 64/48/60
f 75/85/71 76/78/72 64/48/60
f 76/78/72 77/72/73 64/48/60
f 77/72/73 78/65/74 64/48/60
f 78/65/74 79/58/75 64/48/60
f 79/58/75 80/52/76 64/48/60
f 80/52/76 62/46/58 64/48/60
s off
f 1/28/77 2/26/78 38/30/79 36/31/80
f 17/5/81 1/6/82 36/2/83 37/1/84
f 2/105/85 19/108/86 39/111/87 38/112/88
s 5
f 37/59/89 39/66/90 18/54/91
s off
f 31/126/92 14/125/93 40/127/94 41/128/95
f 15/9/96 33/10/97 43/11/98 42/12/99
s 6
f 41/87/100 43/80/101 32/74/102
s off
f 42/38/103 40/39/104 14/36/105 15/34/106
s 5
f 19/60/107 18/54/91 39/66/90
f 18/54/91 17/53/108 37/59/89
s 6
f 33/68/109 32/74/102 43/80/101
f 32/74/102 31/81/110 41/87/100
s 7
f 17/53/111 18/54/112 45/50/113 44/49/114
f 18/54/112 19/60/115 46/55/116 45/50/113
f 19/60/115 20/67/117 47/62/118 46/55/116
f 20/67/117 21/73/119 48/69/120 47/62/118
f 21/73/119 22/79/121 49/75/122 48/69/120
f 22/79/121 23/86/123 50/82/124 49/75/122
f 23/86/123 24/93/125 51/89/126 50/82/124
f 24/93/125 25/99/127 52/95/128 51/89/126
f 25/99/127 26/103/129 53/101/130 52/95/128
f 26/103/129 27/104/131 54/102/132 53/101/130
f 27/104/131 28/100/133 55/96/134 54/102/132
f 28/100/133 29/94/135 56/90/136 55/96/134
f 29/94/135 30/88/137 57/83/138 56/90/136
f 30/88/137 31/81/139 58/76/140 57/83/138
f 31/81/139 32/74/141 59/70/142 58/76/140
f 32/74/141 33/68/143 60/63/144 59/70/142
f 33/68/143 34/61/145 61/56/146 60/63/144
f 34/61/145 17/53/111 44/49/114 61/56/146
f 44/49/114 45/50/113 63/47/147 62/46/148
f 45/50/113 46/55/116 65/51/149 63/47/147
f 46/55/116 47/62/118 66/57/150 65/51/149
f 47/62/118 48/69/120 67/64/151 66/57/150
f 48/69/120 49/75/122 68/71/152 67/64/151
f 49/75/122 50/82/124 69/77/153 68/71/152
f 50/82/124 51/89/126 70/84/154 69/77/153
f 51/89/126 52/95/128 71/91/155 70/84/154
f 52/95/128 53/101/130 72/97/156 71/91/155
f 53/101/130 54/102/132 73/98/157 72/97/156
f 54/102/132 55/96/134 74/92/158 73/98/157
f 55/96/134 56/90/136 75/85/159 74/92/158
f 56/90/136 57/83/138 76/78/160 75/85/159
f 57/83/138 58/76/140 77/72/161 76/78/160
f 58/76/140 59/70/142 78/65/162 77/72/161
f 59/70/142 60/63/144 79/58/163 78/65/162
f 60/63/144 61/56/146 80/52/164 79/58/163
f 61/56/146 44/49/114 62/46/148 80/52/164
s 3
f 35/27/43 2/26/42 1/28/57
f 15/34/56 14/36/54 35/27/43
