# This file uses centimeters as units for non-parametric coordinates.

mtllib wall_frame.mtl
g default
v -4.989091 84.100149 102.196507
v -4.989091 72.040405 -81.700579
v -4.989091 -83.431326 -102.052357
v -4.989091 -65.416678 82.683400
v -13.200436 -77.760812 95.072396
v 13.200436 -77.760812 95.072396
v -13.200436 93.307662 112.256766
v 13.200436 93.307662 112.256766
v -13.200436 82.996070 -93.446432
v 13.200436 82.996070 -93.446432
v -13.200436 -93.307662 -112.256766
v 13.200436 -93.307662 -112.256766
v -13.200436 78.897584 17.997338
v 13.200436 78.897584 17.997338
v 13.200436 -78.897584 -17.997348
v -13.200436 -78.897584 -17.997348
v -13.200436 25.853651 95.738105
v 13.200436 25.853651 95.738105
v 13.200436 35.018793 -88.324824
v -13.200436 35.018793 -88.324824
v -13.200436 28.850013 71.558500
v 13.200436 28.850013 71.558500
v 13.200436 84.100149 102.196507
v -13.200436 84.100149 102.196507
v -13.200436 54.514844 19.400199
v 13.200436 54.514844 19.400199
v 13.200436 72.040405 -81.700579
v -13.200436 72.040405 -81.700579
v 13.200436 34.072048 -64.070116
v -13.200436 34.072048 -64.070116
v -13.200436 -83.431326 -102.052357
v 13.200436 -83.431326 -102.052357
v 13.200436 -54.507179 -19.974315
v -13.200436 -54.507179 -19.974315
v 13.200436 -65.416678 82.683400
v -13.200436 -65.416678 82.683400
vt 0.578543 0.521405
vt 0.916345 0.565624
vt 0.942548 0.965187
vt 0.617685 0.922790
vt 0.333960 0.910104
vt 0.340308 0.856555
vt 0.461355 0.920631
vt 0.481550 0.941903
vt 0.108934 0.907906
vt 0.135317 0.881137
vt 0.394980 0.740870
vt 0.448534 0.737148
vt 0.102020 0.663914
vt 0.155532 0.658527
vt 0.429551 0.520096
vt 0.453103 0.495109
vt 0.067347 0.460937
vt 0.089157 0.482278
vt 0.347199 0.557753
vt 0.348230 0.503931
vt 0.951441 0.009028
vt 0.931435 0.030886
vt 0.811390 0.097455
vt 0.804880 0.044919
vt 0.920131 0.213830
vt 0.867154 0.210782
vt 0.606572 0.073283
vt 0.579751 0.046365
vt 0.929036 0.455970
vt 0.905232 0.430449
vt 0.630276 0.296333
vt 0.577281 0.292038
vt 0.824793 0.444842
vt 0.822736 0.392142
vt 0.567431 0.474668
vt 0.545972 0.496840
vt 0.303046 0.235642
vt 0.303046 0.015976
vt 0.360409 0.015976
vt 0.360409 0.235642
vt 0.303046 0.415538
vt 0.360409 0.415538
vt 0.366544 0.417361
vt 0.366544 0.239025
vt 0.423907 0.239025
vt 0.423907 0.417361
vt 0.366544 0.015976
vt 0.423907 0.015976
vt 0.506176 0.733246
vt 0.509934 0.495896
vt 0.538263 0.933747
vt 0.010682 0.469838
vt 0.044583 0.669637
vt 0.052046 0.910085
vt 0.161770 0.143177
vt 0.161770 0.023132
vt 0.219133 0.023132
vt 0.219133 0.143177
vt 0.161770 0.347995
vt 0.219133 0.347995
vt 0.225268 0.360934
vt 0.225268 0.278438
vt 0.282631 0.278438
vt 0.282631 0.360934
vt 0.225268 0.023132
vt 0.282631 0.023132
vt 0.327954 0.967699
vt 0.470662 0.997189
vt 0.107194 0.965137
vt 0.451295 0.438302
vt 0.350918 0.445903
vt 0.075270 0.404853
vn 1.000000 0.000000 0.000000
vn 1.000000 0.000000 0.000000
vn 1.000000 0.000000 0.000000
vn 1.000000 0.000000 0.000000
vn 0.000000 0.484959 -0.874537
vn 0.000000 0.484959 -0.874537
vn 0.000000 0.484959 -0.874537
vn 0.000000 0.484959 -0.874537
vn 0.000000 -0.985306 -0.170800
vn 0.000000 -0.985306 -0.170800
vn 0.000000 -0.985306 -0.170800
vn 0.000000 -0.985306 -0.170800
vn 0.000000 0.421156 0.906988
vn 0.000000 0.421156 0.906988
vn 0.000000 0.421156 0.906988
vn 0.000000 0.421156 0.906988
vn 0.000000 0.943151 -0.332365
vn 0.000000 0.943151 -0.332365
vn 0.000000 0.943151 -0.332365
vn 0.000000 0.943151 -0.332365
vn 0.000000 -0.941687 0.336490
vn 0.000000 -0.941687 0.336490
vn 0.000000 -0.941687 0.336490
vn 0.000000 -0.941687 0.336490
vn 0.000000 0.994401 0.105676
vn 0.000000 0.994401 0.105676
vn 0.000000 0.994401 0.105676
vn 0.000000 0.994401 0.105676
vn 0.000000 -0.117202 -0.993108
vn 0.000000 -0.117202 -0.993108
vn 0.000000 -0.117202 -0.993108
vn 0.000000 -0.117202 -0.993108
vn 0.000000 -0.307574 0.951524
vn 0.000000 -0.307574 0.951524
vn 0.000000 -0.307574 0.951524
vn 0.000000 -0.307574 0.951524
vn 0.000000 -0.237859 0.971300
vn 0.000000 -0.237859 0.971300
vn 0.000000 -0.237859 0.971300
vn 0.000000 -0.237859 0.971300
vn 0.000000 0.999324 0.036752
vn 0.000000 0.999324 0.036752
vn 0.000000 0.999324 0.036752
vn 0.000000 0.999324 0.036752
vn 0.000000 -0.106148 -0.994350
vn 0.000000 -0.106148 -0.994350
vn 0.000000 -0.106148 -0.994350
vn 0.000000 -0.106148 -0.994350
vn 0.000000 -0.988515 0.151121
vn 0.000000 -0.988515 0.151121
vn 0.000000 -0.988515 0.151121
vn 0.000000 -0.988515 0.151121
vn 0.000000 0.988515 -0.151121
vn 0.000000 0.988515 -0.151121
vn 0.000000 0.988515 -0.151121
vn 0.000000 0.988515 -0.151121
vn 0.000000 -0.999949 0.010053
vn 0.000000 -0.999949 0.010053
vn 0.000000 -0.999949 0.010053
vn 0.000000 -0.999949 0.010053
vn 0.000000 -0.006425 0.999979
vn 0.000000 -0.006425 0.999979
vn 0.000000 -0.006425 0.999979
vn 0.000000 -0.006425 0.999979
vn 0.000000 0.183332 -0.983051
vn 0.000000 0.183332 -0.983051
vn 0.000000 0.183332 -0.983051
vn 0.000000 0.183332 -0.983051
vn 1.000000 0.000000 0.000000
vn 1.000000 0.000000 0.000000
vn 1.000000 0.000000 0.000000
vn 1.000000 0.000000 0.000000
vn -1.000000 -0.000001 0.000000
vn -1.000000 -0.000001 0.000000
vn -1.000000 0.000000 0.000000
vn -1.000000 0.000000 0.000000
vn 1.000000 0.000000 0.000000
vn 1.000000 0.000000 0.000000
vn 1.000000 0.000000 0.000000
vn 1.000000 0.000000 0.000000
vn -1.000000 0.000000 0.000000
vn -1.000000 0.000000 0.000000
vn -1.000000 -0.000001 0.000000
vn -1.000000 -0.000001 0.000000
vn 1.000000 -0.000000 0.000000
vn 1.000000 -0.000000 0.000000
vn -1.000000 0.000000 0.000000
vn -1.000000 0.000000 0.000000
vn 1.000000 -0.000001 0.000000
vn 1.000000 -0.000001 0.000000
vn 1.000000 0.000000 0.000000
vn 1.000000 0.000000 0.000000
vn -1.000000 0.000001 0.000000
vn -1.000000 0.000001 0.000000
vn -1.000000 0.000000 0.000000
vn -1.000000 0.000000 0.000000
vn 1.000000 0.000001 0.000000
vn 1.000000 0.000001 0.000000
vn -1.000000 0.000001 0.000000
vn -1.000000 0.000001 0.000000
s off
g wall_frame_a oriented
usemtl initialShadingGroup
f 3/1/1 2/2/2 1/3/3 4/4/4
f 21/55/5 24/56/6 23/57/7 22/58/8
f 25/37/9 28/38/10 27/39/11 26/40/12
f 28/61/13 30/62/14 29/63/15 27/64/16
f 31/43/17 34/44/18 33/45/19 32/46/20
f 24/41/21 25/37/22 26/40/23 23/42/24
f 34/44/25 36/47/26 35/48/27 33/45/28
f 36/59/29 21/55/30 22/58/31 35/60/32
f 30/62/33 31/65/34 32/66/35 29/63/36
f 17/67/37 18/5/38 8/8/39 7/68/40
f 13/49/41 14/12/42 10/16/43 9/50/44
f 9/70/45 10/16/46 19/20/47 20/71/48
f 11/52/49 12/17/50 15/13/51 16/53/52
f 7/51/53 8/8/54 14/12/55 13/49/56
f 16/53/57 15/13/58 6/9/59 5/54/60
f 5/69/61 6/9/62 18/5/63 17/67/64
f 20/71/65 19/20/66 12/17/67 11/72/68
s 1
f 18/5/69 22/6/70 23/7/71 8/8/72
s 2
f 7/21/73 24/22/74 21/23/75 17/24/76
s 1
f 14/12/77 26/11/78 27/15/79 10/16/80
s 2
f 9/29/81 28/30/82 25/26/83 13/25/84
s 1
f 10/16/80 27/15/79 29/19/85 19/20/86
s 2
f 20/33/87 30/34/88 28/30/82 9/29/81
s 1
f 12/17/89 32/18/90 33/14/91 15/13/92
s 2
f 16/32/93 34/31/94 31/35/95 11/36/96
s 1
f 8/8/72 23/7/71 26/11/78 14/12/77
s 2
f 13/25/84 25/26/83 24/22/74 7/21/73
s 1
f 15/13/92 33/14/91 35/10/97 6/9/98
s 2
f 5/28/99 36/27/100 34/31/94 16/32/93
s 1
f 6/9/98 35/10/97 22/6/70 18/5/69
s 2
f 17/24/76 21/23/75 36/27/100 5/28/99
s 1
f 19/20/86 29/19/85 32/18/90 12/17/89
s 2
f 11/36/96 31/35/95 30/34/88 20/33/87
